# xmcd
#
# Track frame offsets:
#	150
#	8688
#	30104
#	35235
#	47043
#	53063
#	60838
#	68525
#	72596
#	76645
#	81257
#	84939
#	87607
#	90517
#	92697
#	97808
#	100374
#	103371
#	105665
#	111274
#	115424
#	118009
#	120606
#	125266
#	127298
#	134689
#	140238
#	151129
#	153784
#	157674
#	161944
#	164167
#	167775
#	171688
#	175212
#	179829
#	183093
#	187795
#	192557
#	197111
#	207097
#	210911
#	215744
#	222497
#	227672
#	231842
#	239189
#	242423
#
# Disc length: 3280 seconds
#
# Revision: 0
# Processed by: cddbd v1.5.2PL0 Copyright (c) Steve Scherf et al.
# Submitted via: EasyCDDAExtractor 11.9.9.666
#
DISCID=ad0cce30
DTITLE=Евдокия Дмитриевна Марченко - Штормовое предупреждение var 5 HQ p2
DYEAR=2007
DGENRE=Ритм
TTITLE0=01_5_1_Неопалимая купина
TTITLE1=01_5_2_Перо первопричины
TTITLE2=01_5_3_Свет - цвет
TTITLE3=01_5_4_Размышление над человечеством его Творца
TTITLE4=01_5_5_Космо-планетарный человек
TTITLE5=01_5_6_Тело прошедшее нужно ли брать
TTITLE6=01_5_7_Дельфины служат людям и космосу
TTITLE7=01_5_8_Лазоревые бухты - водный старт с планеты Океан
TTITLE8=01_5_9_Разуплотнение планеты
TTITLE9=01_5_10_Очищение истины от лжи
TTITLE10=01_5_11_Кого застит свет звёздных глаз
TTITLE11=01_5_12_Крылья чайки Джонатан
TTITLE12=01_5_13_Боль зданий
TTITLE13=01_5_14_Вывожу человечество в свет
TTITLE14=01_5_15_Соитие пространства и времени
TTITLE15=01_5_16_Живые книги
TTITLE16=01_5_17_Поля ноосферы
TTITLE17=01_5_18_Этика страны слов и букв
TTITLE18=01_5_19_Тройное оперенье звуков
TTITLE19=01_5_20_Мысль неземной чистоты
TTITLE20=01_5_21_Человек знания
TTITLE21=01_5_22_Маяк пророческих букв
TTITLE22=01_5_23_Звучание звуков
TTITLE23=01_5_24_Любовь для каждого своя
TTITLE24=01_5_25_Союз любви и мудрости
TTITLE25=01_5_26_Финишная прямая
TTITLE26=01_5_27_Триптих после остановки времени
TTITLE27=01_5_28_Возьмите знаки, оставьте знания
TTITLE28=01_8_1_Коса-краса
TTITLE29=01_8_2_Закончен массовый пошив
TTITLE30=01_8_3_Штормовое предупреждение
TTITLE31=01_8_4_День Победы
TTITLE32=01_8_5_Обиды полоса уводит в черновик
TTITLE33=01_8_6_Солитоновая стать
TTITLE34=01_8_7_Разум, знающий место
TTITLE35=01_8_8_Урчание в журчании
TTITLE36=01_8_9_Капли сока на берёсте
TTITLE37=01_8_10_Лавовый плащ
TTITLE38=01_8_11_Идущим по мосту
TTITLE39=01_8_12_Уставшим от изобилия и нищеты
TTITLE40=01_8_13_Каплеобразное сошествие
TTITLE41=01_8_14_Сочленение
TTITLE42=01_8_15_Изучение прав
TTITLE43=01_8_16_Строгость числа
TTITLE44=01_8_17_Волнуют наши имена
TTITLE45=01_8_18_Последний след
TTITLE46=01_8_19_Расположение скрижалей
TTITLE47=01_8_20_Не задержись после уборки
EXTD=
EXTT0=
EXTT1=
EXTT2=
EXTT3=
EXTT4=
EXTT5=
EXTT6=
EXTT7=
EXTT8=
EXTT9=
EXTT10=
EXTT11=
EXTT12=
EXTT13=
EXTT14=
EXTT15=
EXTT16=
EXTT17=
EXTT18=
EXTT19=
EXTT20=
EXTT21=
EXTT22=
EXTT23=
EXTT24=
EXTT25=
EXTT26=
EXTT27=
EXTT28=
EXTT29=
EXTT30=
EXTT31=
EXTT32=
EXTT33=
EXTT34=
EXTT35=
EXTT36=
EXTT37=
EXTT38=
EXTT39=
EXTT40=
EXTT41=
EXTT42=
EXTT43=
EXTT44=
EXTT45=
EXTT46=
EXTT47=
PLAYORDER=
